<svg xmlns="http://www.w3.org/2000/svg" data-name="Layer 3" viewBox="0 0 64 64">
  <path d="M57 9h-1V2a1 1 0 0 0-1-1H45a1 1 0 0 0-1 1v7h-1a1 1 0 0 0-1 1v13a1 1 0 0 0 .14.52l3 5A1 1 0 0 0 46 29h1v21.5a6.5 6.5 0 0 1-13 0v-38a11.5 11.5 0 0 0-23 0V40h-1a1 1 0 0 0-.86.48l-3 5A1 1 0 0 0 6 46v13a1 1 0 0 0 1 1h2v2a1 1 0 0 0 1 1h8a1 1 0 0 0 1-1v-2h2a1 1 0 0 0 1-1V46a1 1 0 0 0-.14-.52l-3-5A1 1 0 0 0 18 40h-1V12.5a5.5 5.5 0 0 1 11 0v38a12.5 12.5 0 0 0 25 0V29h1a1 1 0 0 0 .86-.48l3-5A1 1 0 0 0 58 23V10a1 1 0 0 0-1-1ZM46 3h8v6h-1V6a1 1 0 0 0-1-1h-4a1 1 0 0 0-1 1v3h-1Zm5 4v6h-2V7Zm-4 4v3a1 1 0 0 0 1 1h4a1 1 0 0 0 1-1v-3h3v11h-3v-4h-2v4h-2v-4h-2v4h-3V11Zm2 24h2v2h-2Zm-34-1h-2v-2h2Zm-2 17v-4h2v4h2v-4h3v6H8v-6h3v4Zm-4 7H8v-3h3v2h-1a1 1 0 0 0-1 1Zm8 3h-6v-2h1a1 1 0 0 0 1-1v-3h2v3a1 1 0 0 0 1 1h1Zm2-3a1 1 0 0 0-1-1h-1v-2h3v3Zm.23-13H8.77l1.8-3h6.86ZM13 40v-4h2v4Zm27.5 21A10.51 10.51 0 0 1 30 50.5v-38a7.5 7.5 0 0 0-15 0V30h-2V12.5a9.5 9.5 0 0 1 19 0v38a8.5 8.5 0 0 0 17 0V39h2v11.5A10.51 10.51 0 0 1 40.5 61ZM51 33h-2v-4h2Zm2.43-6h-6.86l-1.8-3h10.46Z"/>
</svg>
