<svg xmlns="http://www.w3.org/2000/svg" data-name="Layer 3" viewBox="0 0 64 64">
  <path d="M55 45v-4a5 5 0 0 0-5-5h-8.42a28.19 28.19 0 0 0 2.23-5.37l3.8-3.04a3.7 3.7 0 0 0-2.19-6.58l2.23-6.12A10.35 10.35 0 0 0 37.92 1h-8.49a33.87 33.87 0 0 0-17.96 5.15 1 1 0 0 0 .21 1.8l2.41.8a2.57 2.57 0 0 1 1.58 3.4 4.57 4.57 0 0 0 .15 3.73l2.58 5.15a3.69 3.69 0 0 0-2 6.56l3.8 3.04A28.19 28.19 0 0 0 22.41 36H14a5 5 0 0 0-5 5v4a13.02 13.02 0 0 0-8 12v5a1 1 0 0 0 1 1h60a1 1 0 0 0 1-1v-5a13.02 13.02 0 0 0-8-12ZM40 21h-6a1 1 0 0 0-1 1v1h-2v-1a1 1 0 0 0-1-1h-9v-1.46l6.24-4.17A8.15 8.15 0 0 1 31.78 14a10.21 10.21 0 0 0 6.36-2.23l1.63-1.3 1.72 2.57A8.97 8.97 0 0 1 43 18.03V21Zm-1 2v3a1 1 0 0 1-1 1h-2a1 1 0 0 1-1-1v-3Zm-10 0v3a1 1 0 0 1-1 1h-2a1 1 0 0 1-1-1v-3Zm18 1.7a1.7 1.7 0 0 1-.64 1.33l-1.81 1.45a28.14 28.14 0 0 0 .43-4.48h.32a1.7 1.7 0 0 1 1.7 1.7ZM17.52 12.88a4.57 4.57 0 0 0-2.8-6.03l-.3-.1A31.86 31.86 0 0 1 29.43 3h8.5a8.35 8.35 0 0 1 7.84 11.2l-.87 2.39a10.97 10.97 0 0 0-1.75-4.67l-2.32-3.48a1 1 0 0 0-.68-.43 1.01 1.01 0 0 0-.77.2l-2.49 2A8.21 8.21 0 0 1 31.78 12a10.15 10.15 0 0 0-5.65 1.71l-6.68 4.46a1 1 0 0 0-.17.14L17.6 15a2.57 2.57 0 0 1-.09-2.1Zm.12 13.15A1.7 1.7 0 0 1 18.7 23h.31a28.14 28.14 0 0 0 .44 4.48ZM21.02 23H23v3a3 3 0 0 0 3 3h2a3 3 0 0 0 3-3v-1h2v1a3 3 0 0 0 3 3h2a3 3 0 0 0 3-3v-3h1.98a26.18 26.18 0 0 1-3.7 13H24.72a26.18 26.18 0 0 1-3.71-13ZM14 38h36a3 3 0 0 1 3 3v20H11V41a3 3 0 0 1 3-3ZM3 57a11.02 11.02 0 0 1 6-9.8V61H3Zm58 4h-6V47.2a11.02 11.02 0 0 1 6 9.8Z"/>
  <path d="M32 58a4 4 0 1 0-4-4 4 4 0 0 0 4 4Zm0-6a2 2 0 1 1-2 2 2 2 0 0 1 2-2ZM25.3 48.7l1.4-1.4-3.29-3.3 3.3-3.3-1.42-1.4-4 4a1 1 0 0 0 0 1.4ZM38.7 48.7l4-4a1 1 0 0 0 0-1.4l-4-4-1.4 1.4 3.29 3.3-3.3 3.3ZM28.2 47.4l6-8 1.6 1.2-6 8z"/>
</svg>
