<svg fill="none" xmlns="http://www.w3.org/2000/svg" viewBox="0 0 100 100">
  <rect width="100" height="100" rx="24" fill="var(--font-colour)"/>
  <path d="m35.79 64.21-2.51-2.5-5.7-5.71A5.57 5.57 0 0 1 26 52.21c0-.44.17-1.04.37-1.57l.05-.14c.07-.19.14-.36.21-.5l7.58-15.8v26.25c.02.85.07 1.44.32 2.03l.05.12c.13.32.31.6.55.9l.02.01c.04.06.09.1.13.17l.5.53Z" fill="var(--bg-colour)"/>
  <path d="M74 45.9v19.57h-8.53l-.02-.02-30.92-30.92-.32-.32h25.27l.69.01.3.02a4.17 4.17 0 0 1 .52.05 6.9 6.9 0 0 1 .91.2 4.4 4.4 0 0 1 1.34.72c.17.12.34.27.51.44l.1.1.05.04L74 45.89Z" fill="var(--bg-colour)"/>
  <path d="M65.47 65.47V74h-19.9l-8.52-8.53h28.42Z" fill="#505050"/>
  <path d="M63.75 35.65a6.19 6.19 0 0 0-.51-.44l-.13-.1-.13-.09a4 4 0 0 0-1.44-.63 4.73 4.73 0 0 0-1.06-.15 8.5 8.5 0 0 0-1-.03H34.2l15.16-7.58a5.82 5.82 0 0 1 2.84-.63c1.27 0 2.76.86 3.48 1.58l8.06 8.07Z" fill="#7D7D7D"/>
  <path opacity=".2" d="m37.05 65.47-.95-.95-.16-.16.17.16.94.95Z" fill="var(--font-colour)"/>
  <path d="M65.47 65.47H37.05l-.95-.94-.16-.17-.15-.15c-.2-.19-.36-.37-.5-.53l-.14-.17-.02-.01c-.24-.3-.42-.58-.55-.9l-.05-.12a4.96 4.96 0 0 1-.31-2.03V34.21l31.23 31.24.02.02Z" fill="#7D7D7D"/>
</svg>