<svg fill="none" xmlns="http://www.w3.org/2000/svg" viewBox="0 0 19 21">
  <path fill-rule="evenodd" clip-rule="evenodd" d="M14.3 20a13.38 13.38 0 0 1-8.06 0c.59.07.8-.3.8-.62v-.7l-.01-1.44c-3.63.76-4.39-1.7-4.39-1.7-.6-1.45-1.44-1.84-1.44-1.84-1.19-.78.09-.77.09-.77 1.3.1 1.99 1.3 1.99 1.3 1.16 1.93 3.05 1.37 3.79 1.05.12-.81.45-1.37.83-1.69-2.9-.31-5.94-1.4-5.94-6.23 0-1.38.51-2.5 1.34-3.39A4.4 4.4 0 0 1 3.43.63s1.1-.34 3.58 1.3a12.88 12.88 0 0 1 6.52 0C16.02.29 17.11.63 17.11.63a4.4 4.4 0 0 1 .13 3.34c.83.89 1.34 2.01 1.34 3.39 0 4.85-3.05 5.91-5.95 6.22.47.4.89 1.16.89 2.34l-.02 2.76v.7c0 .32.21.7.8.62Z" />
</svg>