<svg fill="none" xmlns="http://www.w3.org/2000/svg" viewBox="0 0 100 100">
  <rect width="100" height="100" rx="24" fill="var(--font-colour)"/>
  <path d="M32.81 69.58 29 28h42l-3.81 41.57-9.5 2.63c-1.42.39-2.88.66-4.24 1.17-2.32.88-4.53.79-6.9.05-4.5-1.4-9.07-2.55-13.74-3.84Zm23.03-11.25a12.72 12.72 0 0 1-11.75.02l-.4-3.83h-5.17l.65 7.99c3.1.84 6.09 1.61 9.04 2.47a5.9 5.9 0 0 0 3.47 0c3-.88 6.02-1.65 9.08-2.48l1.43-15.76H43.05l-.44-5.24H62.7l.47-4.95H36.81l1.42 15.42h18.25l-.64 6.35Z" fill="var(--bg-colour)"/>
</svg>