<svg fill="none" xmlns="http://www.w3.org/2000/svg" viewBox="0 0 22 22">
  <path d="M7.54 11.02a3.53 3.53 0 0 1 3.54-3.52 3.53 3.53 0 0 1 3.54 3.52 3.53 3.53 0 0 1-3.54 3.52 3.53 3.53 0 0 1-3.54-3.52Zm-1.91 0c0 3 2.44 5.42 5.45 5.42a5.44 5.44 0 0 0 5.45-5.42c0-3-2.44-5.42-5.45-5.42a5.44 5.44 0 0 0-5.45 5.42Zm9.84-5.64a1.26 1.26 0 0 0 .79 1.18 1.28 1.28 0 0 0 1.73-.93 1.26 1.26 0 0 0-.54-1.3 1.28 1.28 0 0 0-1.98 1.05ZM6.79 19.62a5.9 5.9 0 0 1-1.97-.37 3.3 3.3 0 0 1-1.22-.79c-.38-.37-.6-.72-.8-1.21a5.8 5.8 0 0 1-.36-1.96 72.58 72.58 0 0 1-.07-4.27c0-2.82.02-3.15.07-4.27.04-1.03.22-1.58.36-1.96.2-.49.42-.84.8-1.21.37-.37.72-.6 1.22-.8.37-.14.93-.3 1.97-.35 1.12-.06 1.45-.07 4.29-.07 2.83 0 3.17.02 4.29.07 1.03.04 1.6.22 1.97.36.5.19.85.42 1.22.79.37.37.6.72.8 1.21.14.38.31.93.36 1.96.05 1.12.06 1.45.06 4.27 0 2.82-.01 3.16-.06 4.27a5.83 5.83 0 0 1-.37 1.96c-.19.5-.42.84-.8 1.21-.36.37-.72.6-1.21.8-.38.14-.94.31-1.97.36a73.7 73.7 0 0 1-4.3.06c-2.83 0-3.16-.01-4.28-.06ZM6.7.52c-1.13.06-1.9.24-2.58.5-.7.27-1.29.63-1.88 1.21-.59.6-.95 1.18-1.22 1.88a7.71 7.71 0 0 0-.5 2.56 73.72 73.72 0 0 0-.06 4.35c0 2.87.01 3.23.07 4.36a7.7 7.7 0 0 0 .49 2.56c.27.7.63 1.28 1.22 1.87.6.59 1.19.95 1.88 1.22.68.26 1.45.44 2.58.49 1.13.05 1.5.06 4.38.06s3.24-.01 4.37-.06a7.82 7.82 0 0 0 2.58-.5c.7-.26 1.29-.62 1.88-1.21.6-.59.95-1.18 1.22-1.87.27-.67.45-1.44.5-2.56.05-1.13.06-1.5.06-4.36 0-2.87-.01-3.23-.06-4.35a7.7 7.7 0 0 0-.5-2.56 5.19 5.19 0 0 0-1.22-1.88 5.2 5.2 0 0 0-1.88-1.21 7.81 7.81 0 0 0-2.58-.5C14.32.48 13.96.47 11.08.47 8.19.46 7.83.47 6.7.53Z" />
</svg>