<svg fill="none" xmlns="http://www.w3.org/2000/svg" viewBox="0 0 100 100">
  <rect width="100" height="100" rx="24" fill="var(--font-colour)"/>
  <path d="M50.37 72.6c0 1.76-.82 2.64-2.21 2.64-1.5 0-2.38-.98-2.38-3.02H40c0 5.37 3.43 8.23 8.33 8.23 4.73 0 7.85-2.72 7.85-7.86V56.34h-5.81v16.25ZM78.22 73.1c0-7.99-11.8-6.12-11.8-10.27 0-1.5 1.06-2.2 2.45-2.17 1.56.03 2.65.95 2.75 2.48h6.3c-.24-4.56-3.75-7.14-8.95-7.14-5 0-8.7 2.52-8.7 7.04-.07 8.46 11.86 6.08 11.86 10.5 0 1.4-1.08 2.25-2.78 2.25-1.64 0-2.8-.89-2.96-2.72H60.2c.17 4.83 4.18 7.38 9.32 7.38 5.57 0 8.7-3.34 8.7-7.35Z" fill="var(--bg-colour)"/>
</svg>