<svg fill="none" xmlns="http://www.w3.org/2000/svg" viewBox="0 0 100 100">
  <rect width="100" height="100" rx="24" fill="var(--font-colour)"/>
  <path fill-rule="evenodd" clip-rule="evenodd" d="M49.96 62.7c11.5 15.7 22.76-4.37 22.74-16.43C72.68 32 58.23 24.03 49.95 24.03 36.65 24.03 24 35.02 24 50.04 24 66.74 38.5 76 49.95 76c-2.6-.37-11.22-2.22-11.33-22.09-.08-13.44 4.38-18.8 11.3-16.44.16.05 7.65 3 7.65 12.66 0 9.6-7.61 12.58-7.61 12.58Z" fill="url(#a)"/>
  <path fill-rule="evenodd" clip-rule="evenodd" d="M49.94 37.46c-7.6-2.62-16.91 3.64-16.91 16.19C33.03 74.14 48.2 76 50.05 76 63.35 76 76 65.02 76 49.99c0-16.7-14.5-25.96-25.95-25.96 3.17-.44 17.08 3.43 17.08 22.44 0 12.4-10.39 19.14-17.14 16.26-.16-.06-7.64-3.01-7.64-12.66 0-9.6 7.6-12.62 7.6-12.62Z" fill="url(#b)"/>
  <defs>
    <linearGradient id="a" x1="31.69" y1="31.69" x2="68.32" y2="68.33" gradientUnits="userSpaceOnUse">
      <stop offset="0" stop-color="var(--bg-colour)"/>
      <stop offset="1" stop-color="var(--font-colour)"/>
    </linearGradient>
    <linearGradient id="b" x1="68.32" y1="68.32" x2="31.7" y2="31.69" gradientUnits="userSpaceOnUse">
      <stop offset="0" stop-color="var(--bg-colour)"/>
      <stop offset="1" stop-color="var(--font-colour)"/>
    </linearGradient>
  </defs>
</svg>