<svg fill="none" xmlns="http://www.w3.org/2000/svg" viewBox="0 0 22 21">
  <path d="M21 20.71a81 81 0 0 0-3.87 0c-.27 0-.34-.06-.34-.33V13.5c0-.53-.03-1.05-.18-1.54a2.26 2.26 0 0 0-3.66-1.11c-.71.55-1 1.32-1 2.25v6.47c0 .28-.02.56 0 .87.04.24-.09.3-.3.27H7.68c-.25 0-.31-.06-.31-.3.03-1.95.03-3.89.03-5.86 0-2.4 0-4.81-.03-7.19 0-.28.06-.34.3-.34h3.98c.24 0 .3.06.3.31V8.9l.16-.15c1.21-1.76 2.92-2.25 4.93-1.94 2.33.37 3.81 1.97 4.19 4.44.09.58.12 1.17.12 1.76v7.37c0 .24-.06.33-.34.33ZM4.89 13.87v6.47c0 .28-.06.37-.34.37-1.3-.03-2.6 0-3.9 0-.26 0-.32-.06-.32-.3V7.33c0-.21.06-.3.31-.3h4c.28 0 .31.09.31.33-.06 2.16-.06 4.32-.06 6.5ZM5.1 3.45c-.3 1.23-1.58 1.94-3.03 1.7A2.36 2.36 0 0 1 .2 1.9C.58.98 1.48.42 2.63.45c1.73-.03 2.88 1.36 2.48 3Z" />
</svg>