<svg xmlns="http://www.w3.org/2000/svg" viewBox="0 0 206.62 206.62" style="enable-background:new 0 0 206.622 206.622" xml:space="preserve">
  <path d="M155.29 58.38a69.3 69.3 0 0 0-23.62-16.6 3.56 3.56 0 0 0-4.77 4.45 62.79 62.79 0 0 1-16.49 66.44 62.78 62.78 0 0 1-67.43 11.8 3.57 3.57 0 0 0-4.77 4.46 69.33 69.33 0 0 0 14.92 24.72 69.38 69.38 0 0 0 51.14 22.2 69.35 69.35 0 0 0 47.57-18.75 69.37 69.37 0 0 0 22.17-48.65 69.4 69.4 0 0 0-18.72-50.07zm11.6 49.82a62.3 62.3 0 0 1-19.91 43.68 62.18 62.18 0 0 1-44.96 16.8 62.28 62.28 0 0 1-43.67-19.9 62.43 62.43 0 0 1-10.37-14.94 69.93 69.93 0 0 0 67.3-15.96 69.93 69.93 0 0 0 20.6-66.02 62.37 62.37 0 0 1 14.2 11.39 62.31 62.31 0 0 1 16.8 44.95zM167.6 163.76a3.56 3.56 0 1 0-5.03 5.04l7.56 7.56a3.56 3.56 0 0 0 5.04 0 3.56 3.56 0 0 0 0-5.04l-7.56-7.56zM170.13 30.26l-7.57 7.56a3.56 3.56 0 1 0 5.05 5.05l7.56-7.57a3.56 3.56 0 1 0-5.04-5.04zM103.31 188.8a3.57 3.57 0 0 0-3.56 3.56v10.7a3.57 3.57 0 1 0 7.13 0v-10.7c0-1.97-1.6-3.57-3.57-3.57zM201.37 99.75h-10.7a3.57 3.57 0 1 0 0 7.13h10.7a3.57 3.57 0 1 0 0-7.13zM39.02 42.87a3.56 3.56 0 0 0 5.04 0 3.56 3.56 0 0 0 0-5.05l-7.57-7.56a3.56 3.56 0 1 0-5.04 5.04l7.57 7.57zM39.02 163.76l-7.57 7.56a3.56 3.56 0 1 0 5.04 5.04l7.57-7.56a3.56 3.56 0 1 0-5.05-5.04zM103.31 17.83c1.97 0 3.57-1.6 3.57-3.57V3.56a3.57 3.57 0 1 0-7.13 0v10.7c0 1.97 1.59 3.57 3.56 3.57zM15.95 99.75H5.25a3.57 3.57 0 1 0 0 7.13h10.7a3.57 3.57 0 1 0 0-7.13z"/>
</svg>