<svg fill="none" xmlns="http://www.w3.org/2000/svg" viewBox="0 0 100 100">
  <rect width="100" height="100" rx="24" fill="var(--font-colour)"/>
  <path d="M13 49.35a13.68 13.68 0 0 1 2.52-5.92 23.03 23.03 0 0 1 7.24-6.1c5.21-2.97 10.87-4.6 16.76-5.52 4.66-.73 9.34-.97 14.04-.7 8.26.45 16.22 2.07 23.53 6.13a22.46 22.46 0 0 1 7.24 6c3.73 4.94 3.54 10.44-.5 15.15-2.99 3.49-6.84 5.73-11.01 7.45a56.73 56.73 0 0 1-17.67 3.96c-6.57.49-13.09.1-19.52-1.34-5.37-1.19-10.5-3.02-15.07-6.16-2.9-2-5.38-4.39-6.73-7.74-.37-.92-.56-1.93-.83-2.9v-2.31Zm44.43 12.02h4.24l1.03-5.14h3.45c1.61-.02 3.23-.08 4.74-.74a8.66 8.66 0 0 0 5.05-8.61c-.15-2.49-1.51-4.02-3.93-4.66a7.69 7.69 0 0 0-1.85-.28c-2.86-.04-5.73-.04-8.6-.06-.1 0-.22.06-.36.09l-3.77 19.4Zm-27.91-5.14h3.5c1.69-.02 3.4-.06 4.93-.85a8.48 8.48 0 0 0 4.82-7.52c.19-3.46-1.76-5.64-5.22-5.88-1.51-.11-3.03-.08-4.55-.1h-4.94l-3.79 19.48h4.25l1-5.13Zm16.2-19.5-3.76 19.44h4.22l2.15-11.07c1.47 0 2.87-.08 4.25.02 1.32.09 1.73.67 1.5 2-.49 2.75-1.03 5.49-1.55 8.24-.05.27-.08.54-.12.85h4.25c.62-3.3 1.34-6.55 1.82-9.83.38-2.53-.74-3.92-3.28-4.25-1.74-.23-3.5-.18-5.26-.25h-.99l.97-5.14h-4.2Z" fill="var(--bg-colour)"/>
  <path d="M64.73 45c1.73.08 3.41.07 5.07.28 1.58.2 2.23 1.09 2.2 2.68a10.8 10.8 0 0 1-.27 1.95c-.5 2.37-1.9 3.82-4.34 4.03-1.43.12-2.88.02-4.39.02L64.73 45ZM32.37 45c1.36.09 2.7.08 4 .3 1.15.18 1.71 1.01 1.62 2.47a16.97 16.97 0 0 1-.69 3.76 2.9 2.9 0 0 1-2.34 2.14c-1.27.2-2.56.22-3.96.33l1.37-9Z" fill="var(--bg-colour)"/>
</svg>