<svg fill="none" xmlns="http://www.w3.org/2000/svg" viewBox="0 0 490 537">
  <path d="M2 2h401.26L488 87.3V535H2V2Z" fill="var(--card-bg)" stroke="var(--card-bg)" stroke-width="3" stroke-linecap="round"/>
  <g opacity=".05" fill="var(--card-font)">
    <mask id="a">
      <path fill-rule="evenodd" clip-rule="evenodd" d="M2 281.34v-62.79l.37-.55 21.49 32.18-10.07 15.13-11.18 16.8v.02l-.61-.8ZM2 412.7v-64.9l43.26-65.24 9.29 13.99.01.01 33.7 50.75a98244 98244 0 0 1 42.93-64.78c49 73.88 97.33 146.77 146.2 220.5h-42.92l-82.3-123.84-.06-.1-20.95-31.52a22439.7 22439.7 0 0 1-21.48 32.1L212.76 535H2v-57.81l43.15-65.16 9.51 14.23v.01c3.96 5.9 7.87 11.75 11.94 17.86l-38.83 59.22.02.02h121.06c-34.53-52.03-68.54-103.25-103.5-155.88L2 412.69Z"/>
    </mask>
    <path fill-rule="evenodd" clip-rule="evenodd" d="M2 281.34v-62.79l.37-.55 21.49 32.18-10.07 15.13-11.18 16.8v.02l-.61-.8ZM2 412.7v-64.9l43.26-65.24 9.29 13.99.01.01 33.7 50.75a98244 98244 0 0 1 42.93-64.78c49 73.88 97.33 146.77 146.2 220.5h-42.92l-82.3-123.84-.06-.1-20.95-31.52a22439.7 22439.7 0 0 1-21.48 32.1L212.76 535H2v-57.81l43.15-65.16 9.51 14.23v.01c3.96 5.9 7.87 11.75 11.94 17.86l-38.83 59.22.02.02h121.06c-34.53-52.03-68.54-103.25-103.5-155.88L2 412.69Z"/>
    <path d="M2 281.34H1v.34l.2.27.8-.61Zm0-62.79-.83-.55-.17.25v.3h1Zm.37-.55.83-.56-.84-1.24-.83 1.25.84.55Zm21.49 32.18.83.55.37-.55-.37-.56-.83.56ZM13.79 265.3l-.84-.55.84.55ZM2.6 282.11l-.83-.55-.17.25v.3h1Zm0 .02-.8.6 1.8 2.36v-2.96h-1ZM2 412.7H1V416l1.83-2.76-.83-.55Zm0-64.9-.83-.54-.17.25v.3h1Zm43.26-65.24.83-.55-.83-1.25-.83 1.25.83.56Zm9.29 13.99-.83.55.83-.55Zm.01.01.83-.55-.83.55Zm33.7 50.75-.83.55.84 1.26.83-1.26-.84-.55Zm42.93-64.78.84-.55-.84-1.26-.83 1.26.83.55Zm146.2 220.5v1h1.87l-1.03-1.55-.83.55Zm-42.92 0-.83.55.3.45h.53v-1Zm-82.3-123.84-.83.55.84-.55Zm-.06-.1.84-.55-.84.56Zm-20.95-31.52.83-.56-.83-1.25-.83 1.25.83.56Zm-21.48 32.1-.83-.55-.37.56.37.55.83-.55ZM212.76 535v1h1.87l-1.04-1.55-.83.55ZM2 535H1v1h1v-1Zm0-57.81-.83-.55-.17.25v.3h1Zm43.15-65.16.83-.55-.83-1.25-.84 1.25.84.55Zm9.51 14.23-.83.56.83-.56Zm0 .01.84-.55-.83.55Zm11.94 17.86.84.55.36-.56-.36-.55-.84.56Zm-38.83 59.22-.83-.55-.48.74.66.57.65-.76Zm.02.02-.65.75.28.25h.37v-1Zm121.06 0v1h1.86l-1.03-1.55-.83.55ZM45.35 347.49l.84-.56-.84-1.25-.83 1.25.83.56ZM3 281.34v-62.79H1v62.79h2Zm-1.47-63.9-.36.56 1.66 1.1.37-.55-1.67-1.1Zm23.16 32.18L3.2 217.44l-1.65 1.12 21.49 32.17 1.66-1.1Zm-10.07 16.25 10.07-15.14-1.66-1.1-10.08 15.13 1.67 1.1Zm-11.18 16.8c3.91-5.87 7.6-11.4 11.18-16.8l-1.67-1.11-11.17 16.8 1.66 1.1Zm.17-.54v-.02h-2v.02h2Zm-2.4-.18c.19.25.4.5.6.79l1.6-1.22-.62-.8-1.58 1.23ZM3 412.7v-64.9H1v64.9h2ZM44.43 282 1.17 347.26l1.66 1.1 43.26-65.24-1.66-1.1ZM55.38 296l-9.29-13.98-1.66 1.1 9.29 13.99 1.66-1.1Zm.01.02V296l-1.67 1.11v.02l1.67-1.1Zm33.7 50.74-33.7-50.74-1.66 1.1 33.7 50.75 1.67-1.1Zm41.27-64.77c-14.54 21.91-28.37 42.8-42.93 64.77l1.67 1.1c14.56-21.97 28.39-42.85 42.93-64.76l-1.67-1.11Zm147.87 220.5c-48.88-73.73-97.2-146.62-146.2-220.5l-1.67 1.1c49 73.88 97.32 146.77 146.2 220.5l1.67-1.1Zm-43.76 1.55h42.93v-2h-42.93v2Zm-83.13-124.29 82.3 123.84 1.66-1.1c-27.12-40.83-54.47-81.97-82.3-123.84l-1.66 1.1Zm-.06-.09.06.1 1.67-1.11-.06-.1-1.67 1.11Zm-20.96-31.53 20.96 31.53 1.67-1.1L131.99 347l-1.67 1.1Zm-19.8 32.12 21.47-32.12-1.66-1.11c-7.46 11.17-14.32 21.43-21.48 32.11l1.66 1.12Zm103.07 154.2c-34.75-52.36-68.9-103.8-103.07-155.32l-1.67 1.11 103.08 155.32 1.66-1.1Zm-.83-.44H2v2h210.76v-2ZM3 535v-57.81H1V535h2Zm41.31-123.52L1.17 476.64l1.66 1.1 43.15-65.16-1.67-1.1ZM55.5 425.7l-9.51-14.22-1.66 1.1 9.51 14.24 1.66-1.12Zm.01.01-1.67 1.1v.02l1.67-1.12Zm11.94 17.87L55.5 425.71l-1.66 1.1 11.93 17.87 1.67-1.12ZM28.6 503.9l38.83-59.22-1.67-1.1c-12.61 19.22-25.37 38.68-38.83 59.23l1.67 1.1Zm-.16-1.28-.02-.02-1.31 1.5.02.02 1.3-1.5Zm120.4-.25H27.79v2h121.06v-2ZM44.52 348.04l103.5 155.88 1.66-1.1c-34.53-52.03-68.54-103.25-103.5-155.89l-1.66 1.1ZM2.83 413.25l43.36-65.21-1.67-1.1a538036.5 538036.5 0 0 0-43.35 65.2l1.66 1.11Z" mask="url(#a)"/>
  </g>
</svg>