<svg fill="none" xmlns="http://www.w3.org/2000/svg" viewBox="0 0 100 100">
  <rect width="100" height="100" rx="24" fill="var(--font-colour)"/>
  <g clip-path="url(#a)">
    <path d="M32.89 43.88c5.86 5.44 18.85-.71 21.38-6.86 1.52-3.71.36-6.11-3.55-6.96a17.7 17.7 0 0 0-8.48.43 38.02 38.02 0 0 0-15.4 8.25 15.7 15.7 0 0 0-2.8 3.33c-1.9 2.99-1.65 5.84.69 8.48.85.97 1.85 1.81 2.85 2.64 1.78 1.48 3.6 2.91 5.78 4.66 2.45-1.77 5.03-3.66 7.63-5.51.83-.6 1.65-1.26 2.57-1.66 2.09-.9 3.37-.01 3.45 2.26.02.37 0 .75 0 1.1l2.12.41-1.96 8.74.69.23 6.7-15.2h3.6c-1 2.72-1.4 5.16.3 8.06l4.86-9.99h3.58c-1.38 3.15-1.38 5.93.53 8.64a13.45 13.45 0 0 1 9.1-.8c3.46.96 5.67 3.75 5.45 6.74-.13 1.86-1.43 3.28-3.44 3.6.15-.24.22-.44.35-.52 2.91-1.74 2.03-5.18-.32-6.68-3.3-2.1-6.8-1.91-10.39-.92.65 4.37-.54 6.4-4.38 7.65-2 .66-3.08-.18-2.5-2.2.37-1.36 1.26-2.59 2.05-3.78.37-.56 1.05-.92 1.43-1.24L63 51.68l-3.75 6.35c.94 2.4 1.22 4.84-1.21 6.64-1.8 1.34-3.8 2.18-6.5 1.28.75-3.04 3.54-4.53 4.74-7.03l-1.89-5.07c-1.77 3.54-3.55 7.17-5.4 10.77a7.63 7.63 0 0 1-1.53 2.06c-1.1 1.02-2.32.66-2.72-.77-.25-.87-.29-1.79-.45-2.88-.64 1.26-1.09 2.5-1.83 3.5-.52.7-1.5 1.52-2.2 1.47-.82-.05-1.85-.85-2.29-1.61-1.6-2.81-1.19-5.83-.3-9.15l-1.8.99-1.72 1.03c.87 2.5.98 4.98.21 7.48A10.2 10.2 0 0 1 24.06 74c-2.46-.13-3.83-1.5-3.94-4.02a6.9 6.9 0 0 1 2.8-5.94c2.36-1.84 4.89-3.48 7.49-5.3-1.03-.74-2.18-1.5-3.24-2.36-2.23-1.79-4.6-3.44-6.57-5.5-3.16-3.3-3.46-6.5-.79-10.24a30.96 30.96 0 0 1 6.3-6.64c5.65-4.3 11.96-7.4 19.14-7.94 2.52-.2 5.21.12 7.63.83 4.72 1.38 6.48 5.25 4.97 9.96a13.84 13.84 0 0 1-4.42 6.48 19.2 19.2 0 0 1-16.48 4.26c-1.98-.37-3.62-1.5-4.06-3.72Zm-.93 16.28c-2.04 1.55-4.07 2.82-5.74 4.46a9.28 9.28 0 0 0-2.1 3.88c-.42 1.4.6 2.25 2.05 2.04 4.25-.63 7.33-5.83 5.79-10.38Zm13.52-7.35c-4.03.9-6.83 8.71-4.33 11.77a39.22 39.22 0 0 0 4.33-11.77Zm19.83 5.1L63.04 62c2.45-.49 3.23-1.87 2.27-4.09Zm-11.05 6.37.44.4 2.89-3.35-.45-.39-2.88 3.34Z" fill="var(--bg-colour)"/>
  </g>
  <defs>
    <clipPath id="a">
      <path fill="var(--bg-colour)" transform="translate(18 26)" d="M0 0h64v48H0z"/>
    </clipPath>
  </defs>
</svg>