<svg xmlns="http://www.w3.org/2000/svg" viewBox="0 0 512.01 512.01" style="enable-background:new 0 0 512.007 512.007" xml:space="preserve">
  <path d="M314.79 114.1a8.48 8.48 0 0 0 11.15-4.61L339 77.94a8.53 8.53 0 1 0-15.77-6.52l-13.06 31.54a8.53 8.53 0 0 0 4.62 11.15zM256 119.47c-75.28 0-136.53 61.26-136.53 136.54S180.72 392.54 256 392.54c75.3 0 136.53-61.25 136.53-136.53S331.3 119.47 256 119.47zm0 256c-65.87 0-119.47-53.59-119.47-119.46 0-65.88 53.6-119.47 119.47-119.47 65.88 0 119.47 53.59 119.47 119.47 0 65.87-53.6 119.46-119.47 119.46zM340.93 51.04a8.53 8.53 0 0 0 11.14-4.65l14.22-34.6a8.53 8.53 0 1 0-15.78-6.5l-14.23 34.62a8.54 8.54 0 0 0 4.65 11.13zM159.95 46.4a8.55 8.55 0 0 0 11.14 4.64 8.53 8.53 0 0 0 4.65-11.14L161.49 5.3a8.52 8.52 0 1 0-15.78 6.48l14.24 34.61zM256 102.4a8.53 8.53 0 0 0 8.53-8.53V34.14a8.53 8.53 0 1 0-17.06 0v59.73a8.54 8.54 0 0 0 8.53 8.54zM173.01 77.95l13.07 31.54a8.54 8.54 0 0 0 15.77-6.54l-13.07-31.54A8.54 8.54 0 0 0 173 77.95zM418.13 247.47a8.54 8.54 0 0 0 0 17.07h68.27a8.53 8.53 0 1 0 0-17.07h-68.26zM138.34 148.64a8.49 8.49 0 0 0 12.06 0 8.52 8.52 0 0 0 0-12.07l-48.26-48.26a8.52 8.52 0 1 0-12.07 12.06l48.27 48.27zM468.87 176.37c1.08 0 2.17-.2 3.24-.64l34.6-14.23a8.54 8.54 0 0 0-6.49-15.79l-34.6 14.24a8.54 8.54 0 0 0 3.25 16.42zM397.91 197.23a8.53 8.53 0 0 0 11.15 4.62l31.53-13.07a8.53 8.53 0 1 0-6.52-15.77l-31.54 13.07a8.53 8.53 0 0 0-4.62 11.15zM367.63 148.64a8.49 8.49 0 0 0 12.07 0l42.24-42.23a8.54 8.54 0 0 0-12.07-12.07l-42.24 42.23a8.54 8.54 0 0 0 0 12.07z"/>
  <path d="M311.73 170.08a8.54 8.54 0 1 0-9.3 14.3 85.83 85.83 0 0 1 29.67 32.95 8.53 8.53 0 0 0 15.2-7.75 102.91 102.91 0 0 0-35.57-39.5zM352.04 465.58a8.55 8.55 0 0 0-15.76 6.59l14.25 34.06a8.57 8.57 0 0 0 11.17 4.58 8.54 8.54 0 0 0 4.58-11.16l-14.24-34.07zM379.7 365.87a8.54 8.54 0 0 0-12.06 12.07l48.27 48.26a8.5 8.5 0 0 0 12.07 0 8.54 8.54 0 0 0 0-12.06l-48.28-48.27zM339 434.07l-13.07-31.55a8.54 8.54 0 0 0-15.77 6.53l13.07 31.55a8.55 8.55 0 0 0 11.15 4.62 8.53 8.53 0 0 0 4.62-11.15zM197.24 397.9a8.52 8.52 0 0 0-11.15 4.62l-13.07 31.55a8.52 8.52 0 0 0 7.87 11.8 8.52 8.52 0 0 0 7.89-5.27l13.08-31.55a8.53 8.53 0 0 0-4.62-11.14zM256 409.6a8.54 8.54 0 0 0-8.53 8.54v68.27a8.54 8.54 0 0 0 17.06 0v-68.27a8.53 8.53 0 0 0-8.53-8.53zM440.6 323.23l-31.55-13.06a8.53 8.53 0 1 0-6.53 15.76L434.07 339a8.55 8.55 0 0 0 6.53-15.77zM506.71 350.51l-34.6-14.21a8.53 8.53 0 1 0-6.49 15.77l34.6 14.23a8.51 8.51 0 0 0 11.14-4.65 8.53 8.53 0 0 0-4.65-11.14zM171.07 460.97a8.54 8.54 0 0 0-11.14 4.64l-14.22 34.62a8.54 8.54 0 0 0 15.78 6.49l14.23-34.61a8.53 8.53 0 0 0-4.65-11.14zM5.3 161.5l34.61 14.22a8.5 8.5 0 0 0 11.14-4.65 8.53 8.53 0 0 0-4.65-11.13L11.78 145.7a8.53 8.53 0 1 0-6.49 15.79zM25.6 247.47a8.54 8.54 0 0 0 0 17.07h68.27a8.53 8.53 0 1 0 0-17.07H25.6zM71.4 188.78l31.56 13.07a8.48 8.48 0 0 0 11.14-4.62 8.52 8.52 0 0 0-4.62-11.15l-31.53-13.07a8.54 8.54 0 0 0-6.54 15.77zM39.9 336.28 5.3 350.51a8.54 8.54 0 0 0 6.49 15.79l34.6-14.24a8.53 8.53 0 1 0-6.49-15.78zM114.1 314.8a8.53 8.53 0 0 0-11.14-4.63l-31.54 13.06A8.53 8.53 0 1 0 77.94 339l31.55-13.06a8.53 8.53 0 0 0 4.62-11.15zM150.4 365.87a8.54 8.54 0 0 0-12.06 0l-48.27 48.27a8.52 8.52 0 1 0 12.07 12.06l48.26-48.26a8.53 8.53 0 0 0 0-12.07z"/>
</svg>