<svg xmlns="http://www.w3.org/2000/svg" data-name="Layer 3" viewBox="0 0 64 64">
  <path d="M57 49h-6v-1.1a5 5 0 0 0 4-4.9v-1h1a3 3 0 0 0 0-6h-1v-2.1a5 5 0 0 0 4-4.9v-4a1 1 0 0 0-1-1H48a9.01 9.01 0 0 0-9 9v3h-1a3 3 0 0 0 0 6h1v1a5 5 0 0 0 4 4.9V49h-6a6 6 0 0 0-5 2.69A6 6 0 0 0 27 49h-6v-1.1a5 5 0 0 0 4-4.9v-1h1a3 3 0 0 0 0-6h-1v-3a7 7 0 0 0-7-7h-2a7 7 0 0 0-7 7v3H8a3 3 0 0 0 0 6h1v1a5 5 0 0 0 4 4.9V49H7a6 6 0 0 0-6 6v7a1 1 0 0 0 1 1h60a1 1 0 0 0 1-1v-7a6 6 0 0 0-6-6Zm-12-1h4v2a2 2 0 0 1-4 0Zm11-10a1 1 0 0 1 0 2h-1v-2Zm-8-12h9v3a3 3 0 0 1-3 3H41.07A7.01 7.01 0 0 1 48 26ZM38 40a1 1 0 0 1 0-2h1v2Zm3 3v-9h12v9a3 3 0 0 1-3 3h-6a3 3 0 0 1-3-3Zm-26 5h4v2a2 2 0 0 1-4 0Zm11-10a1 1 0 0 1 0 2h-1v-2ZM16 28h2a5 5 0 0 1 4.97 4.74l-1.12 1.7-2.14-2.15A1 1 0 0 0 18 33v1l-2.4-1.8a1 1 0 0 0-1.55.48l-.56 1.69-2.44-1.83A4.99 4.99 0 0 1 16 28ZM8 40a1 1 0 0 1 0-2h1v2Zm3 3v-8l2.4 1.8a1 1 0 0 0 1.55-.48l.56-1.69 2.89 2.17A1 1 0 0 0 20 36v-.59l1.3 1.3a1 1 0 0 0 1.53-.16l.17-.25V43a3 3 0 0 1-3 3h-6a3 3 0 0 1-3-3ZM3 55a4 4 0 0 1 4-4h6.14a3.98 3.98 0 0 0 7.72 0H27a4 4 0 0 1 4 4v6h-4v-3h-2v3H9v-3H7v3H3Zm58 6h-4v-3h-2v3H39v-3h-2v3h-4v-6a4 4 0 0 1 4-4h6.14a3.98 3.98 0 0 0 7.72 0H57a4 4 0 0 1 4 4Z"/>
  <path d="M6 23h13.72l9.77 5.86a1 1 0 0 0 1.46-1.18l-1.62-4.86A5 5 0 0 0 33 18V6a5 5 0 0 0-5-5H6a5 5 0 0 0-5 5v12a5 5 0 0 0 5 5ZM3 6a3 3 0 0 1 3-3h22a3 3 0 0 1 3 3v12a3 3 0 0 1-3 3 1 1 0 0 0-.95 1.32l1.15 3.43-7.68-4.6A1 1 0 0 0 20 21H6a3 3 0 0 1-3-3ZM38.67 19.82l-1.62 4.86a1 1 0 0 0 1.47 1.18L48.27 20H52a5 5 0 0 0 5-5V9a5 5 0 0 0-5-5H40a5 5 0 0 0-5 5v6a5 5 0 0 0 3.67 4.82ZM37 9a3 3 0 0 1 3-3h12a3 3 0 0 1 3 3v6a3 3 0 0 1-3 3h-4a1 1 0 0 0-.52.14l-7.68 4.61 1.14-3.43A1 1 0 0 0 40 18a3 3 0 0 1-3-3Z"/>
  <circle cx="9.5" cy="14.5" r="1.5"/>
  <circle cx="14.5" cy="14.5" r="1.5"/>
  <circle cx="19.5" cy="14.5" r="1.5"/>
  <circle cx="24.5" cy="14.5" r="1.5"/>
  <circle cx="40.5" cy="14.5" r="1.5"/>
  <circle cx="45.5" cy="14.5" r="1.5"/>
  <circle cx="50.5" cy="14.5" r="1.5"/>
</svg>
