<svg fill="none" xmlns="http://www.w3.org/2000/svg" viewBox="0 0 100 100">
  <rect width="100" height="100" rx="24" fill="var(--font-colour)"/>
  <path d="M61.05 54.4v4.87h-6.6v20.48h-5.92V59.27H42V54.4h19.05ZM81 72.61A7.12 7.12 0 0 1 77.11 79c-1.26.67-2.8 1-4.6 1-2.73 0-4.98-.7-6.74-2.08a7.64 7.64 0 0 1-2.9-5.81h6.27c.09.96.4 1.71.96 2.26a3 3 0 0 0 2.17.82c.75 0 1.35-.21 1.78-.64.44-.43.66-1 .66-1.72 0-.65-.21-1.19-.62-1.62a4.3 4.3 0 0 0-1.48-1.04c-.6-.28-1.42-.62-2.48-1a33.11 33.11 0 0 1-3.78-1.58 7.46 7.46 0 0 1-2.51-2.3 7.03 7.03 0 0 1-1.03-3.97c0-1.51.36-2.81 1.1-3.91a6.95 6.95 0 0 1 3.02-2.51c1.31-.6 2.8-.9 4.48-.9 2.7 0 4.84.67 6.43 2a7.75 7.75 0 0 1 2.71 5.53H74.2a3.32 3.32 0 0 0-.9-1.97 2.43 2.43 0 0 0-1.88-.75c-.7 0-1.25.19-1.69.57-.41.38-.62.94-.62 1.68 0 .6.18 1.12.55 1.55.4.4.87.74 1.45 1 .57.26 1.4.6 2.47 1 1.56.56 2.83 1.1 3.82 1.65.98.53 1.83 1.3 2.54 2.34A6.92 6.92 0 0 1 81 72.6Z" fill="var(--bg-colour)"/>
</svg>